HIERARCHY
ROOT Hips
{
  OFFSET 0 89.5177 0.535
  CHANNELS 6 Xposition Yposition Zposition Zrotation Xrotation Yrotation
  JOINT Spine
  {
    OFFSET 12.0259 -0.162855 1.69034e-005
    CHANNELS 3 Zrotation Xrotation Yrotation
    JOINT Spine1
    {
      OFFSET 15.3169 -0.0121922 0
      CHANNELS 3 Zrotation Xrotation Yrotation
      JOINT Spine2
      {
        OFFSET 15.3176 -0.0121908 0
        CHANNELS 3 Zrotation Xrotation Yrotation
        JOINT Neck
        {
          OFFSET 19.9142 1.56338 0
          CHANNELS 3 Zrotation Xrotation Yrotation
          JOINT Head
          {
            OFFSET 6.92651 0 0
            CHANNELS 3 Zrotation Xrotation Yrotation
            End Site
            {
              OFFSET 20.7666 0 0
            }
          }
          JOINT LeftShoulder
          {
            OFFSET -6.20654 0.708824 7.28219
            CHANNELS 3 Zrotation Xrotation Yrotation
            JOINT LeftArm
            {
              OFFSET 14.108 0 -1.52588e-005
              CHANNELS 3 Zrotation Xrotation Yrotation
              JOINT LeftForeArm
              {
                OFFSET 28.5802 0 0
                CHANNELS 3 Zrotation Xrotation Yrotation
                JOINT LeftHand
                {
                  OFFSET 27.092 0 0
                  CHANNELS 3 Zrotation Xrotation Yrotation
                  End Site
                  {
                    OFFSET 9.55928 -0.186424 0.145352
                  }
                }
              }
            }
          }
          JOINT RightShoulder
          {
            OFFSET -6.20654 0.708866 -7.28218
            CHANNELS 3 Zrotation Xrotation Yrotation
            JOINT RightArm
            {
              OFFSET 14.108 0 1.52588e-005
              CHANNELS 3 Zrotation Xrotation Yrotation
              JOINT RightForeArm
              {
                OFFSET 28.5802 0 0
                CHANNELS 3 Zrotation Xrotation Yrotation
                JOINT RightHand
                {
                  OFFSET 27.092 0 0
                  CHANNELS 3 Zrotation Xrotation Yrotation
                  End Site
                  {
                    OFFSET 9.55929 -0.186417 -0.145354
                  }
                }
              }
            }
          }
        }
      }
    }
  }
  JOINT LeftUpLeg
  {
    OFFSET 0.005 -0.535 8.837
    CHANNELS 3 Zrotation Xrotation Yrotation
    JOINT LeftLeg
    {
      OFFSET 39.9035 0 0
      CHANNELS 3 Zrotation Xrotation Yrotation
      JOINT LeftFoot
      {
        OFFSET 39.6689 0 0
        CHANNELS 3 Zrotation Xrotation Yrotation
        JOINT LeftToe
        {
          OFFSET 10.1624 13.6296 0
          CHANNELS 3 Zrotation Xrotation Yrotation
          End Site
          {
            OFFSET 8.38147 0 0
          }
        }
      }
    }
  }
  JOINT RightUpLeg
  {
    OFFSET 0.005 -0.535 -8.837
    CHANNELS 3 Zrotation Xrotation Yrotation
    JOINT RightLeg
    {
      OFFSET 39.9035 0 0
      CHANNELS 3 Zrotation Xrotation Yrotation
      JOINT RightFoot
      {
        OFFSET 39.6689 0 0
        CHANNELS 3 Zrotation Xrotation Yrotation
        JOINT RightToe
        {
          OFFSET 10.1624 13.6296 0
          CHANNELS 3 Zrotation Xrotation Yrotation
          End Site
          {
            OFFSET 8.38147 0 0
          }
        }
      }
    }
  }
}
MOTION
Frames:	6
Frame Time:	0.0333333
85.9016 86.8514 449.047 -41.0408 -72.816 -125.801 5.09036 -0.81903 -0.538909 10.1744 -1.68213 -1.00306 10.1744 -1.68213 -1.00307 -8.30589e-012 -9.0191e-006 -5.27751e-005 6.94412 0.561839 2.86231 -179.019 -3.62996 -74.8597 3.17726 -4.46037 51.1058 -47.1336 -1.59028e-015 -1.59028e-015 -47.9751 -59.1711 -48.0934 -178.141 6.51826 74.045 0.231904 11.3071 -63.578 -63.0696 -3.18055e-015 3.18055e-015 -37.946 51.3418 37.1648 0.370611 8.40855 174.897 -29.9439 0 2.98177e-016 13.8753 4.23513 0.66172 90 0 7.95139e-016 -9.06595 -8.58834 171.946 -34.5444 0 -3.97569e-015 13.7834 -4.14593 -1.99462 90 -1.30807e-020 -0 
87.7398 86.6891 450.985 -51.8194 -72.48 -137.311 5.34494 -0.749761 -0.565729 10.6837 -1.54845 -1.05919 10.6837 -1.54845 -1.05919 -8.30748e-012 -9.0191e-006 -5.27751e-005 6.94357 0.56221 2.86224 -179.018 -3.63196 -74.8629 3.18608 -4.49122 51.0802 -47.1374 3.18055e-015 4.77083e-015 -47.975 -59.171 -48.0933 -178.178 6.61185 74.5584 0.0185829 10.0295 -64.279 -63.1066 4.77083e-015 -6.36111e-015 -37.9461 51.3421 37.1649 -4.28274 9.23467 176.807 -29.3927 -7.95139e-016 -3.97569e-016 12.0178 4.26818 -0.0762532 90 -4.96962e-017 -0 -9.22102 -8.5186 171.794 -35.5054 -3.18056e-015 -0 16.6755 -4.0336 -0.804405 90 1.97159e-020 6.36111e-015 
89.4694 84.027 459.176 -76.3753 -67.7613 -163.233 6.55219 -1.00996 -0.994549 13.0893 -2.1262 -1.86771 13.0893 -2.1262 -1.86772 -8.30112e-012 -9.0191e-006 -5.27751e-005 6.94304 0.562581 2.86218 -178.848 -4.79637 -76.4746 3.91849 -1.85255 52.5624 -47.1494 -1.59028e-014 -0 -47.9748 -59.1709 -48.0931 -179.532 9.18116 87.0725 -10.4158 18.3437 -84.6189 -63.0788 1.59028e-015 3.18055e-015 -37.9463 51.3424 37.1651 -23.138 10.4732 -174.017 -33.5643 1.59028e-015 -1.19271e-015 7.89593 4.69959 -4.98453 90 -2.98177e-016 -0 -12.4428 -7.8839 170.952 -44.0768 0 -0 27.4276 -3.31236 2.22259 90 0 -0 
90.833 84.0332 459.876 -84.3662 -64.5305 -172.6 6.14338 -0.305421 -0.976031 12.281 -0.713006 -1.91373 12.281 -0.713007 -1.91374 -8.30748e-012 -9.0191e-006 -5.27751e-005 6.94272 0.563041 2.86185 -178.677 -5.71715 -76.9486 5.72908 0.420085 52.9791 -47.1598 0 -1.59028e-015 -47.9746 -59.1709 -48.093 -179.478 8.99489 86.6665 -12.0656 17.606 -82.2615 -63.1018 -1.59028e-015 3.18055e-015 -37.9465 51.3427 37.1653 -26.7398 11.1205 -170.317 -33.263 -1.59028e-015 1.49089e-015 7.57453 4.69262 -5.62706 90 0 -3.18055e-015 -10.1363 -8.08433 170.977 -40.3513 -3.18056e-015 -1.59028e-015 28.4302 -2.51212 4.78863 90 1.51661e-020 -3.18055e-015 
91.9728 85.5009 455.273 -70.2555 -69.1887 -157.877 5.97283 -0.371352 -0.616579 11.9418 -0.804339 -1.19112 11.9418 -0.80434 -1.19113 -8.31066e-012 -9.0191e-006 -5.27751e-005 -4.27263 13.157 -1.86338 -178.896 -3.44698 -72.2347 5.15818 -1.7745 51.8809 -47.1595 0 -0 -47.9745 -59.1708 -48.0929 -178.577 7.9172 79.7755 -4.27947 13.0664 -72.6607 -63.1126 0 -0 -37.9467 51.3429 37.1655 -17.7156 10.4646 -176.533 -31.9893 -1.59028e-015 -9.93923e-016 7.31198 4.6931 -7.23776 90 7.45443e-016 3.18055e-015 -10.0963 -8.23054 171.28 -38.5536 6.36111e-015 -0 22.4266 -3.45462 2.45829 90 6.06643e-021 -3.18055e-015 
93.0703 85.53 454.787 -67.6714 -69.6066 -155.733 6.12204 -0.311864 -0.536123 12.2412 -0.678623 -1.03586 12.2412 -0.678624 -1.03587 -8.31066e-012 -9.0191e-006 -5.27751e-005 -4.55089 12.4231 -1.48594 -178.904 -3.36701 -71.9634 5.39943 -2.4675 51.2687 -47.1586 -3.18055e-015 -0 -47.9743 -59.1707 -48.0928 -178.572 7.91508 79.7384 -3.84329 13.7936 -71.1666 -63.1175 3.18055e-015 -0 -37.9469 51.3432 37.1657 -18.0946 10.3569 -176.959 -32.2432 0 7.95139e-016 7.27331 4.74035 -7.16003 90 8.44835e-016 -3.18055e-015 -10.1322 -8.2099 171.239 -38.3616 -3.18056e-015 -3.18056e-015 21.4484 -3.49594 2.73087 90 9.09964e-021 -9.54166e-015 
